HIERARCHY
ROOT Hip
{
	OFFSET	0.0000	0.0000	0.0000
	CHANNELS 6 Xposition Yposition Zposition Xrotation Yrotation Zrotation
	JOINT LowerSpine
	{
		OFFSET	0.0000	9.9786	-5.3998
		CHANNELS 3 Xrotation Yrotation Zrotation
		JOINT MiddleSpine
		{
			OFFSET	0.0000	9.1062	0.4757
			CHANNELS 3 Xrotation Yrotation Zrotation
			JOINT Chest
			{
				OFFSET	0.0000	11.2679	-2.5081
				CHANNELS 3 Xrotation Yrotation Zrotation
				JOINT Neck
				{
					OFFSET	0.0000	25.3918	-0.5281
					CHANNELS 3 Xrotation Yrotation Zrotation
					JOINT Head
					{
						OFFSET	0.0000	14.3390	3.9002
						CHANNELS 3 Xrotation Yrotation Zrotation
						End Site
						{
							OFFSET	0.0001	20.0354	0.5981
						}
					}
				}
				JOINT LClavicle
				{
					OFFSET	2.5635	24.5043	8.3953
					CHANNELS 3 Xrotation Yrotation Zrotation
					JOINT LShoulder
					{
						OFFSET	14.9764	3.5148	-5.6873
						CHANNELS 3 Xrotation Yrotation Zrotation
						JOINT LForearm
						{
							OFFSET	31.8128	-0.1130	-0.2757
							CHANNELS 3 Xrotation Yrotation Zrotation
							JOINT LHand
							{
								OFFSET	26.5386	0.0770	-0.1589
								CHANNELS 3 Xrotation Yrotation Zrotation
								JOINT LFinger1
								{
									OFFSET	10.2856	0.8995	2.8568
									CHANNELS 3 Xrotation Yrotation Zrotation
									JOINT LFinger11
									{
										OFFSET	3.8473	-0.9382	0.6779
										CHANNELS 3 Xrotation Yrotation Zrotation
										JOINT LFinger12
										{
											OFFSET	2.6265	-0.6407	0.4630
											CHANNELS 3 Xrotation Yrotation Zrotation
											End Site
											{
												OFFSET	1.8690	-0.5579	0.3032
											}
										}
									}
								}
								JOINT LFinger2
								{
									OFFSET	10.4391	1.0388	0.2487
									CHANNELS 3 Xrotation Yrotation Zrotation
									JOINT LFinger21
									{
										OFFSET	4.7570	0.0133	-0.0281
										CHANNELS 3 Xrotation Yrotation Zrotation
										JOINT LFinger22
										{
											OFFSET	2.6367	0.0080	-0.0160
											CHANNELS 3 Xrotation Yrotation Zrotation
											End Site
											{
												OFFSET	2.3683	-0.1672	0.0032
											}
										}
									}
								}
								JOINT LFinger3
								{
									OFFSET	9.8932	0.6931	-2.3405
									CHANNELS 3 Xrotation Yrotation Zrotation
									JOINT LFinger31
									{
										OFFSET	4.3165	-0.2186	-0.2702
										CHANNELS 3 Xrotation Yrotation Zrotation
										JOINT LFinger32
										{
											OFFSET	2.4597	-0.1237	-0.1546
											CHANNELS 3 Xrotation Yrotation Zrotation
											End Site
											{
												OFFSET	2.1748	-0.2674	-0.1028
											}
										}
									}
								}
								JOINT LFinger4
								{
									OFFSET	9.1805	-0.6977	-4.0422
									CHANNELS 3 Xrotation Yrotation Zrotation
									JOINT LFinger41
									{
										OFFSET	2.6551	-0.5537	-0.7329
										CHANNELS 3 Xrotation Yrotation Zrotation
										JOINT LFinger42
										{
											OFFSET	1.9469	-0.4055	-0.5378
											CHANNELS 3 Xrotation Yrotation Zrotation
											End Site
											{
												OFFSET	1.7281	-0.4748	-0.3965
											}
										}
									}
								}
								JOINT LFinger0
								{
									OFFSET	2.1276	-1.6104	1.6129
									CHANNELS 3 Xrotation Yrotation Zrotation
									JOINT LFinger01
									{
										OFFSET	3.9614	-1.3011	2.9868
										CHANNELS 3 Xrotation Yrotation Zrotation
										JOINT LFinger02
										{
											OFFSET	2.6086	-0.9334	1.8794
											CHANNELS 3 Xrotation Yrotation Zrotation
											End Site
											{
												OFFSET	1.9183	-0.6603	1.3135
											}
										}
									}
								}
							}
						}
					}
				}
				JOINT RClavicle
				{
					OFFSET	-2.5635	24.5043	8.3953
					CHANNELS 3 Xrotation Yrotation Zrotation
					JOINT RShoulder
					{
						OFFSET	-14.9790	3.5154	-5.6882
						CHANNELS 3 Xrotation Yrotation Zrotation
						JOINT RForearm
						{
							OFFSET	-31.8128	-0.1130	-0.2757
							CHANNELS 3 Xrotation Yrotation Zrotation
							JOINT RHand
							{
								OFFSET	-26.5386	0.0770	-0.1589
								CHANNELS 3 Xrotation Yrotation Zrotation
								JOINT RFinger1
								{
									OFFSET	-10.2856	0.8995	2.8568
									CHANNELS 3 Xrotation Yrotation Zrotation
									JOINT RFinger11
									{
										OFFSET	-3.8473	-0.9382	0.6779
										CHANNELS 3 Xrotation Yrotation Zrotation
										JOINT RFinger12
										{
											OFFSET	-2.6265	-0.6407	0.4630
											CHANNELS 3 Xrotation Yrotation Zrotation
											End Site
											{
												OFFSET	-1.8690	-0.5579	0.3032
											}
										}
									}
								}
								JOINT RFinger2
								{
									OFFSET	-10.4391	1.0388	0.2487
									CHANNELS 3 Xrotation Yrotation Zrotation
									JOINT RFinger21
									{
										OFFSET	-4.7570	0.0133	-0.0281
										CHANNELS 3 Xrotation Yrotation Zrotation
										JOINT RFinger22
										{
											OFFSET	-2.6367	0.0080	-0.0160
											CHANNELS 3 Xrotation Yrotation Zrotation
											End Site
											{
												OFFSET	-2.3683	-0.1672	0.0032
											}
										}
									}
								}
								JOINT RFinger3
								{
									OFFSET	-9.8932	0.6931	-2.3405
									CHANNELS 3 Xrotation Yrotation Zrotation
									JOINT RFinger31
									{
										OFFSET	-4.3165	-0.2185	-0.2702
										CHANNELS 3 Xrotation Yrotation Zrotation
										JOINT RFinger32
										{
											OFFSET	-2.4597	-0.1237	-0.1546
											CHANNELS 3 Xrotation Yrotation Zrotation
											End Site
											{
												OFFSET	-2.1748	-0.2674	-0.1028
											}
										}
									}
								}
								JOINT RFinger4
								{
									OFFSET	-9.1805	-0.6977	-4.0422
									CHANNELS 3 Xrotation Yrotation Zrotation
									JOINT RFinger41
									{
										OFFSET	-2.6551	-0.5537	-0.7329
										CHANNELS 3 Xrotation Yrotation Zrotation
										JOINT RFinger42
										{
											OFFSET	-1.9469	-0.4055	-0.5378
											CHANNELS 3 Xrotation Yrotation Zrotation
											End Site
											{
												OFFSET	-1.7281	-0.4748	-0.3965
											}
										}
									}
								}
								JOINT RFinger0
								{
									OFFSET	-2.1276	-1.6104	1.6130
									CHANNELS 3 Xrotation Yrotation Zrotation
									JOINT RFinger01
									{
										OFFSET	-3.9614	-1.3011	2.9868
										CHANNELS 3 Xrotation Yrotation Zrotation
										JOINT RFinger02
										{
											OFFSET	-2.6086	-0.9334	1.8794
											CHANNELS 3 Xrotation Yrotation Zrotation
											End Site
											{
												OFFSET	-1.9183	-0.6603	1.3135
											}
										}
									}
								}
							}
						}
					}
				}
			}
		}
	}
	JOINT RThigh
	{
		OFFSET	-10.6746	4.5106	-0.8799
		CHANNELS 3 Xrotation Yrotation Zrotation
		JOINT RShin
		{
			OFFSET	-0.8542	-46.4297	0.0000
			CHANNELS 3 Xrotation Yrotation Zrotation
			JOINT RFoot
			{
				OFFSET	0.0000	-45.5911	0.0000
				CHANNELS 3 Xrotation Yrotation Zrotation
				JOINT RToe
				{
					OFFSET	0.0000	-5.0109	10.4784
					CHANNELS 3 Xrotation Yrotation Zrotation
					End Site
					{
						OFFSET	0.0000	0.0000	7.0295
					}
				}
			}
		}
	}
	JOINT LThigh
	{
		OFFSET	10.6745	4.5109	-0.8799
		CHANNELS 3 Xrotation Yrotation Zrotation
		JOINT LShin
		{
			OFFSET	0.8542	-46.4301	0.0000
			CHANNELS 3 Xrotation Yrotation Zrotation
			JOINT LFoot
			{
				OFFSET	0.0000	-45.5911	0.0000
				CHANNELS 3 Xrotation Yrotation Zrotation
				JOINT LToe
				{
					OFFSET	0.0000	-5.0109	10.4784
					CHANNELS 3 Xrotation Yrotation Zrotation
					End Site
					{
						OFFSET	0.0000	0.0000	7.0295
					}
				}
			}
		}
	}
}
MOTION
Frames:	4
Frame Time: 0.0333333000
	-5.1320	96.9159	14.6967	-12.424660	9.874920	6.037231	0.000000	0.000000	0.000000	4.718150	0.093031	0.296364	15.727070	0.397966	0.947763	0.000000	0.000000	0.000000	0.000000	0.000000	0.000000	0.000000	0.000000	-15.238760	-4.553040	3.653447	-61.116360	-6.544725	-22.396600	-12.610220	0.000000	0.000000	0.000000	0.000000	0.000000	0.000000	0.000000	0.000000	0.000000	0.000000	0.000000	0.000000	0.000000	0.000000	0.000000	0.000000	0.000000	0.000000	0.000000	0.000000	0.000000	0.000000	0.000000	0.000000	0.000000	0.000000	0.000000	0.000000	0.000000	0.000000	0.000000	0.000000	0.000000	0.000000	0.000000	0.000000	0.000000	0.000000	0.000000	0.000000	0.000000	0.000000	0.000000	0.000000	0.000000	0.000000	0.000000	0.000000	0.000000	0.000000	15.281090	1.364399	17.006300	62.543300	-15.875910	33.040540	-0.064089	0.000000	0.000000	0.000000	0.000000	0.000000	0.000000	0.000000	0.000000	0.000000	0.000000	0.000000	0.000000	0.000000	0.000000	0.000000	0.000000	0.000000	0.000000	0.000000	0.000000	0.000000	0.000000	0.000000	0.000000	0.000000	0.000000	0.000000	0.000000	0.000000	0.000000	0.000000	0.000000	0.000000	0.000000	0.000000	0.000000	0.000000	0.000000	0.000000	0.000000	0.000000	0.000000	0.000000	0.000000	0.000000	0.000000	0.000000	0.000000	16.027450	-0.508237	-1.052698	-0.281128	1.772677	3.145821	-0.209447	-1.526414	-0.733511	0.000000	0.000000	0.000000	-11.633100	-0.287616	2.646695	25.543280	-0.233482	-0.435894	9.838718	-3.806383	-1.430670	0.000000	0.000000	0.000000
	-4.4551	96.9419	14.9692	-12.277380	9.484099	5.442785	0.000000	0.000000	0.000000	4.705304	0.128392	0.312064	15.694740	0.490049	0.979913	0.000000	0.000000	0.000000	0.000000	0.000000	0.000000	0.000000	0.000000	-15.232830	-4.068441	4.411381	-61.617890	-6.612678	-23.868640	-12.207700	0.000000	0.000000	0.000000	0.000000	0.000000	0.000000	0.000000	0.000000	0.000000	0.000000	0.000000	0.000000	0.000000	0.000000	0.000000	0.000000	0.000000	0.000000	0.000000	0.000000	0.000000	0.000000	0.000000	0.000000	0.000000	0.000000	0.000000	0.000000	0.000000	0.000000	0.000000	0.000000	0.000000	0.000000	0.000000	0.000000	0.000000	0.000000	0.000000	0.000000	0.000000	0.000000	0.000000	0.000000	0.000000	0.000000	0.000000	0.000000	0.000000	0.000000	15.290430	1.246453	16.189330	62.644580	-16.520400	32.990260	-0.069333	0.000000	0.000000	0.000000	0.000000	0.000000	0.000000	0.000000	0.000000	0.000000	0.000000	0.000000	0.000000	0.000000	0.000000	0.000000	0.000000	0.000000	0.000000	0.000000	0.000000	0.000000	0.000000	0.000000	0.000000	0.000000	0.000000	0.000000	0.000000	0.000000	0.000000	0.000000	0.000000	0.000000	0.000000	0.000000	0.000000	0.000000	0.000000	0.000000	0.000000	0.000000	0.000000	0.000000	0.000000	0.000000	0.000000	0.000000	0.000000	16.136160	-0.535770	-1.176070	-0.399221	1.733324	3.438407	0.201965	-1.022238	-0.487497	0.000000	0.000000	0.000000	-9.517002	-0.142953	2.399128	27.664390	-0.116555	-0.127517	5.257708	-2.846992	-1.197436	0.000000	0.000000	0.000000
	-3.6035	96.9304	15.3494	-12.279490	9.174301	4.883083	0.000000	0.000000	0.000000	4.699003	0.145980	0.318205	15.661180	0.584978	1.005951	0.000000	0.000000	0.000000	0.000000	0.000000	0.000000	0.000000	0.000000	-15.209340	-3.519410	5.265479	-61.973260	-6.759129	-25.074680	-12.342270	0.000000	0.000000	0.000000	0.000000	0.000000	0.000000	0.000000	0.000000	0.000000	0.000000	0.000000	0.000000	0.000000	0.000000	0.000000	0.000000	0.000000	0.000000	0.000000	0.000000	0.000000	0.000000	0.000000	0.000000	0.000000	0.000000	0.000000	0.000000	0.000000	0.000000	0.000000	0.000000	0.000000	0.000000	0.000000	0.000000	0.000000	0.000000	0.000000	0.000000	0.000000	0.000000	0.000000	0.000000	0.000000	0.000000	0.000000	0.000000	0.000000	0.000000	15.299680	1.683497	15.748910	62.167550	-16.271120	33.022520	-0.067807	0.000000	0.000000	0.000000	0.000000	0.000000	0.000000	0.000000	0.000000	0.000000	0.000000	0.000000	0.000000	0.000000	0.000000	0.000000	0.000000	0.000000	0.000000	0.000000	0.000000	0.000000	0.000000	0.000000	0.000000	0.000000	0.000000	0.000000	0.000000	0.000000	0.000000	0.000000	0.000000	0.000000	0.000000	0.000000	0.000000	0.000000	0.000000	0.000000	0.000000	0.000000	0.000000	0.000000	0.000000	0.000000	0.000000	0.000000	0.000000	16.283990	-0.548172	-1.178800	-0.134897	1.701304	3.354393	0.128364	-0.669550	-0.318203	0.000000	0.000000	0.000000	-6.748239	0.014079	2.137196	27.665420	0.033740	0.307506	2.955120	-2.354987	-1.049755	0.000000	0.000000	0.000000
	-2.6997	96.8394	15.7907	-12.436600	8.747770	4.268490	0.000000	0.000000	0.000000	4.692694	0.163722	0.324072	15.627350	0.683290	1.024457	0.000000	0.000000	0.000000	0.000000	0.000000	0.000000	0.000000	0.000000	-15.183080	-2.908512	6.253275	-61.883400	-7.127289	-26.074490	-13.471880	0.000000	0.000000	0.000000	0.000000	0.000000	0.000000	0.000000	0.000000	0.000000	0.000000	0.000000	0.000000	0.000000	0.000000	0.000000	0.000000	0.000000	0.000000	0.000000	0.000000	0.000000	0.000000	0.000000	0.000000	0.000000	0.000000	0.000000	0.000000	0.000000	0.000000	0.000000	0.000000	0.000000	0.000000	0.000000	0.000000	0.000000	0.000000	0.000000	0.000000	0.000000	0.000000	0.000000	0.000000	0.000000	0.000000	0.000000	0.000000	0.000000	0.000000	15.309330	2.401979	15.973680	61.297110	-15.232230	32.825120	-0.063758	0.000000	0.000000	0.000000	0.000000	0.000000	0.000000	0.000000	0.000000	0.000000	0.000000	0.000000	0.000000	0.000000	0.000000	0.000000	0.000000	0.000000	0.000000	0.000000	0.000000	0.000000	0.000000	0.000000	0.000000	0.000000	0.000000	0.000000	0.000000	0.000000	0.000000	0.000000	0.000000	0.000000	0.000000	0.000000	0.000000	0.000000	0.000000	0.000000	0.000000	0.000000	0.000000	0.000000	0.000000	0.000000	0.000000	0.000000	0.000000	16.360000	-0.523539	-0.940437	0.682930	1.681741	2.833543	-0.614853	-0.318582	-0.152953	0.000000	0.000000	0.000000	-3.441422	0.167580	2.215523	25.914710	0.080508	0.342915	2.119648	-1.552780	-0.710186	0.000000	0.000000	0.000000
